<svg width="100" height="68" viewBox="0 0 100 68" fill="none" xmlns="http://www.w3.org/2000/svg">
<path fill-rule="evenodd" clip-rule="evenodd" d="M77.8889 45.5578C90.1111 45.5578 100 35.4588 100 23.1155C100 10.7723 90 0.673278 77.7778 0.673277C65.5556 0.673276 55.5556 10.7723 55.5556 23.1155C55.5556 47.9142 75.4444 68 100 68C100 68 85.4444 62.5017 77.8889 45.5578ZM44.4444 23.1155C44.4444 10.7723 34.4444 0.673273 22.2222 0.673272C10 0.673271 -2.62639e-06 10.7723 -3.70547e-06 23.1155C-5.87344e-06 47.9142 19.8889 68 44.4444 68C44.4444 68 29.8889 62.5016 22.3333 45.5578C34.5556 45.5578 44.4444 35.4587 44.4444 23.1155Z" fill="black" fill-opacity="0.05"/>
</svg>
