<svg width="168" height="28" viewBox="0 0 168 28" fill="none" xmlns="http://www.w3.org/2000/svg">
<mask id="mask0" mask-type="alpha" maskUnits="userSpaceOnUse" x="0" y="0" width="23" height="28">
<path d="M22.586 0.786011H0V27.5433H22.586V0.786011Z" fill="white"/>
</mask>
<g mask="url(#mask0)">
<path fill-rule="evenodd" clip-rule="evenodd" d="M21.306 21.8404C20.2308 21.8404 19.6446 21.3446 19.6446 19.9583V17.6412C19.6446 14.0393 19.0231 11.4485 17.2931 9.60196C15.6088 7.71057 13.3031 6.78754 10.3757 6.78754C8.33654 6.78754 6.56289 7.35857 5.09897 8.50268V0.785583H-6.10352e-05V25.3443C1.95131 26.5756 5.32139 27.5434 8.46906 27.5434C11.9171 27.5434 14.0628 26.6152 16.0921 24.7409C17.1398 26.239 18.7472 26.8982 20.4782 26.8982C21.1179 26.8982 22.0699 26.7508 22.586 26.5457V21.6961C22.2721 21.7935 21.8247 21.8404 21.306 21.8404ZM8.73513 22.8381C7.36059 22.8381 6.16326 22.4861 5.09897 21.8265V13.4275C6.20796 12.152 7.5378 11.5366 9.17841 11.5366C12.1936 11.5366 14.411 13.5589 14.411 17.2093C14.411 20.6834 12.061 22.8381 8.73513 22.8381Z" fill="white"/>
</g>
<path fill-rule="evenodd" clip-rule="evenodd" d="M30.1174 5.41708C31.6276 5.34802 33.2069 5.30164 34.8106 5.30164C38.5044 5.30164 40.1533 6.89103 40.1533 9.28748C40.1533 11.0155 39.3868 12.2359 37.8304 12.9507V12.9971C39.5261 13.4352 40.6876 14.7019 40.6876 16.7526C40.6876 19.9545 38.2716 21.5903 34.6474 21.5903C32.6732 21.5903 31.1625 21.5444 30.1174 21.4754V5.41708ZM32.9751 8.02071V12.0983H34.9031C36.3202 12.0983 37.3196 11.3613 37.3196 9.95591C37.3196 8.66595 36.3436 7.95165 34.7638 7.95165C34.0903 7.95165 33.4864 7.97433 32.9751 8.02071ZM32.9751 14.5638V18.8259C33.6252 18.8944 34.253 18.9408 34.8568 18.9408C36.8316 18.9408 37.8304 18.158 37.8304 16.6139C37.8304 15.2549 36.7848 14.5638 34.9961 14.5638H32.9751Z" fill="white"/>
<path fill-rule="evenodd" clip-rule="evenodd" d="M49.9343 21.4981V20.6694C49.1678 21.3832 48.1923 21.7517 47.0537 21.7517C45.4968 21.7517 44.2428 21.2451 43.3137 20.254C42.384 19.2635 41.9194 17.9498 41.9194 16.3145C41.9194 14.7705 42.477 13.4805 43.6156 12.4446C44.7537 11.4072 46.1708 10.8779 47.9133 10.8779C49.702 10.8779 51.2818 11.2918 52.6059 12.1215V21.4981H49.9343ZM49.9343 18.2034V13.8722C49.214 13.5264 48.5405 13.3661 47.8899 13.3661C45.9385 13.3661 44.7771 14.7014 44.7771 16.4295C44.7771 18.2034 45.8689 19.2861 47.5412 19.2861C48.4704 19.2861 49.2608 18.9177 49.9343 18.2034Z" fill="white"/>
<path fill-rule="evenodd" clip-rule="evenodd" d="M54.7882 21.4981V11.1309H57.4598V12.1679C58.2263 11.3608 59.2257 10.9459 60.4568 10.9459C63.314 10.9459 64.7545 12.4446 64.7545 15.4157V21.4981H62.0828V15.877C62.0828 14.2407 61.2929 13.4346 59.7365 13.4346C58.877 13.4346 58.1333 13.7572 57.4598 14.4252V21.4981H54.7882Z" fill="white"/>
<mask id="mask1" mask-type="alpha" maskUnits="userSpaceOnUse" x="0" y="0" width="168" height="28">
<path d="M0 27.5433H168V0.786011H0V27.5433Z" fill="white"/>
</mask>
<g mask="url(#mask1)">
<path fill-rule="evenodd" clip-rule="evenodd" d="M66.8087 21.4986H69.4803V5.37128H66.8087V21.4986ZM76.6123 11.1305L72.5698 15.8538L74.3122 17.904C74.9862 18.7564 75.9154 19.3094 76.7516 19.0331V21.4981C74.9629 21.9594 73.2672 21.2446 72.0823 19.4939L69.5265 16.0842L73.4293 11.1305H76.6123Z" fill="white"/>
<path fill-rule="evenodd" clip-rule="evenodd" d="M86.976 20.4612C85.9543 21.3136 84.6297 21.7517 82.9807 21.7517C81.2845 21.7517 79.937 21.2451 78.892 20.2546C77.8692 19.2635 77.3584 17.9498 77.3584 16.3141C77.3584 14.7705 77.8692 13.4806 78.8686 12.4437C79.8674 11.4078 81.2144 10.877 82.8872 10.877C84.2581 10.877 85.443 11.3382 86.3955 12.236C87.3476 13.1348 87.836 14.2871 87.836 15.692C87.836 16.2682 87.7893 16.7526 87.6734 17.1211H80.1231C80.332 18.6647 81.5865 19.5403 83.2588 19.5403C84.4441 19.5403 85.4196 19.2176 86.2095 18.5956L86.976 20.4612ZM80.03 15.3462H85.1644C85.1873 14.0562 84.2581 13.0889 82.7713 13.0889C81.2611 13.0889 80.332 13.8496 80.03 15.3462Z" fill="white"/>
<path fill-rule="evenodd" clip-rule="evenodd" d="M89.2467 21.4981V11.1309H91.9184V12.1452C92.4994 11.3381 93.3121 10.9459 94.3115 10.9459C95.0312 10.9459 95.5888 11.0846 95.9375 11.3381L94.985 13.8263C94.5438 13.5727 94.0787 13.4346 93.6375 13.4346C92.8709 13.4346 92.2899 13.8031 91.9184 14.5406V21.4981H89.2467Z" fill="white"/>
<path fill-rule="evenodd" clip-rule="evenodd" d="M94.7528 21.4981L101.629 5.32489H104.138L111.015 21.4981H107.971L106.276 17.3742H99.3291L97.6334 21.4981H94.7528ZM102.814 8.98863L100.421 14.7247H105.184L102.814 8.98863Z" fill="white"/>
<path fill-rule="evenodd" clip-rule="evenodd" d="M118.993 21.4981V20.4153C118.18 21.2682 117.181 21.6826 115.996 21.6826C114.51 21.6826 113.325 21.1987 112.419 20.254C111.513 19.2861 111.071 18.0194 111.071 16.4295C111.071 14.7937 111.606 13.4805 112.675 12.4447C113.743 11.4072 115.113 10.8779 116.81 10.8779C117.693 10.8779 118.413 11.0387 118.993 11.384V5.37073H121.665V21.4981H118.993ZM118.993 18.158V13.9882C118.32 13.5728 117.646 13.3661 116.926 13.3661C115.253 13.3661 113.929 14.4943 113.929 16.3372C113.929 18.1116 115.067 19.2171 116.554 19.2171C117.46 19.2171 118.273 18.8713 118.993 18.158Z" fill="white"/>
<path fill-rule="evenodd" clip-rule="evenodd" d="M133.751 11.1304L129.243 21.5444H127.269L122.46 11.1304H125.643L127.571 15.5775C127.919 16.3376 128.175 17.121 128.361 17.927C128.57 17.0746 128.826 16.2686 129.128 15.5311L130.939 11.1304H133.751Z" fill="white"/>
<path fill-rule="evenodd" clip-rule="evenodd" d="M136.119 5.85492C136.932 5.85492 137.652 6.47697 137.652 7.39844C137.652 8.41217 136.932 9.05741 136.119 9.05741C135.166 9.05741 134.446 8.41217 134.446 7.39844C134.446 6.47697 135.189 5.85492 136.119 5.85492ZM134.725 21.4978H137.397V11.1302H134.725V21.4978Z" fill="white"/>
<path fill-rule="evenodd" clip-rule="evenodd" d="M143.118 10.8772C144.814 10.8772 146.138 11.3153 147.091 12.1909L146.092 14.0797C145.232 13.4118 144.303 13.0897 143.258 13.0897C142.491 13.0897 141.957 13.504 141.957 13.9874C141.957 14.6095 142.839 14.978 143.931 15.2542C145.534 15.6 147.625 16.3148 147.602 18.434C147.602 20.462 145.953 21.752 143.374 21.752C142.468 21.752 141.585 21.5669 140.702 21.1758C139.842 20.7841 139.262 20.3924 139.006 19.977L140.307 18.25C140.609 18.5958 141.097 18.8953 141.771 19.1488C142.444 19.4014 143.025 19.5405 143.56 19.5405C144.721 19.6549 145.534 18.434 144.35 17.8346C142.886 17.0745 139.285 17.0286 139.285 14.0333C139.285 12.0754 140.888 10.8772 143.118 10.8772Z" fill="white"/>
<path fill-rule="evenodd" clip-rule="evenodd" d="M148.439 16.3147C148.439 14.7253 148.95 13.4348 149.995 12.4206C151.041 11.3842 152.435 10.8776 154.13 10.8776C155.826 10.8776 157.197 11.3842 158.242 12.4206C159.288 13.4348 159.822 14.7253 159.822 16.3147C159.822 17.9041 159.288 19.1946 158.242 20.231C157.197 21.2442 155.826 21.7518 154.13 21.7518C152.435 21.7518 151.041 21.2442 149.995 20.231C148.95 19.1946 148.439 17.9041 148.439 16.3147ZM154.13 19.2868C155.803 19.2868 156.988 18.0881 156.988 16.3147C156.988 14.5861 155.78 13.3652 154.13 13.3652C152.528 13.3652 151.296 14.564 151.296 16.3147C151.296 18.0427 152.481 19.2868 154.13 19.2868Z" fill="white"/>
<path fill-rule="evenodd" clip-rule="evenodd" d="M161.309 21.4981V11.1309H163.981V12.1452C164.562 11.3381 165.375 10.9459 166.374 10.9459C167.094 10.9459 167.651 11.0846 168 11.3381L167.048 13.8263C166.606 13.5727 166.141 13.4346 165.7 13.4346C164.934 13.4346 164.353 13.8031 163.981 14.5406V21.4981H161.309Z" fill="white"/>
</g>
</svg>
